<svg xmlns="http://www.w3.org/2000/svg" viewBox="0 0 53 93">
	<path
		d="M37.2 1.038c-.3 0-.5.1-.6.3l-2.3 3.5-4.3 1c-.1 0-.1 0-.2.1l-4.1 2.1-.3.3-4.2 8.2-3.3 2.9-.2.2-5.6 10.8s-1.6 2.7-3.3 5.6c-.8 1.4-1.7 2.8-2.4 4-.7 1.1-1.1 1.9-1.2 2.2 0 0 0 0 0 0-.3.5-.6 1.6-1 2.7s-.7 2-.7 2v.2l.2 6.1-1.6 7.5c-.1.3 0 .6.3.7l2.5 2 2.2 7.4-.2 1.3c0 .2 0 .4.2.6l3.7 3.9c.1.1.1.1.2.1l3.9 2.2 2.5 5 .5 2.5-.5 1.2c-.1.2-.1.4 0 .6l1.2 2.5c.2.4.6.5 1 .3 0 0 .1 0 .1-.1l3.9-2.8c.2-.1.3-.4.3-.6l-.2-8.3 3.2-8.5 4.3-3.9.2-.2 4.2-7.8c0-.1.1-.1.1-.2l6-23v-.2l.2-4.8 2.8-2.4c.1-.1.2-.2.2-.3l2.5-7.8v-.4l-1.3-6.2 3.5-4.5c.2-.3.2-.7 0-1l-1.2-1.4-.9-1.4c-.1-.2-.3-.3-.5-.3l-3.3-.7-2.8-3c-.1-.1-.3-.2-.5-.2h-3.2 0zm.4 1.5h2.5l2.8 2.9c.1.1.2.2.4.2l3.2.6.7 1.1s0 .1.1.1l.8.9-3.3 4.3c-.1.2-.2.4-.1.6l1.4 6.3-2.3 7.4-2.8 2.5c-.2.1-.2.3-.3.5l-.2 5-6 22.8-4.1 7.6-4.3 4c-.1.1-.2.2-.2.3l-3.4 8.8c0 .1-.1.2 0 .3l.2 8.1-2.9 2.1-.7-1.4.4-1.1c0-.1.1-.3 0-.4l-.5-2.8c0-.1 0-.1-.1-.2l-2.6-5.3-.3-.3-4-2.2-3.4-3.5.1-1.1v-.3l-2.3-7.8c0-.1-.1-.3-.3-.4l-2.3-1.8 1.5-7.1v-.2l-.2-6.1c0-.1.3-.9.6-1.9.4-1.1.8-2.3.9-2.5h0s.5-1 1.2-2.1 1.5-2.6 2.4-4c1.7-2.8 3.3-5.6 3.3-5.6s0 0 0 0l5.6-10.7 3.3-2.9.2-.2 4.1-8.1 3.8-2 4.5-1c.2 0 .3-.2.5-.3l2.1-3.1h0z"
		fill-rule="evenodd" clip-rule="evenodd" stroke="#999" stroke-width=".25" stroke-miterlimit="10"
		xmlns:cc="http://creativecommons.org/ns#" xmlns:dc="http://purl.org/dc/elements/1.1/"
		xmlns:inkscape="http://www.inkscape.org/namespaces/inkscape"
		xmlns:rdf="http://www.w3.org/1999/02/22-rdf-syntax-ns#"
		xmlns:sodipodi="http://sodipodi.sourceforge.net/DTD/sodipodi-0.dtd" xmlns:svg="http://www.w3.org/2000/svg" />
	<path
		d="M16.9 24.6l1.3 1.2 1.5 1.1 1.1.2.5.6.5.1h.4l.4-.1h.7l.4-.2V27l-.1-.2.3-.3h.3l.4.2h.5l.4.1h.2l.4.4v.3l.3.2.1.2h.3l.4-.5.3-.2h.5l.3-.1.2-.2h.2s-.1-.2 0-.2.5-.4.5-.4h.5l.4-.5.2-.1.2-.4h.1l.1.2.1.1h.3l.1-.4.2-.2v-.3l.4-.3.7-.1h.5l.4-.2.3.2-.1.5.1.3.2.2h.5l.2.3.1.3.2.1h.2l.2-.3h.7l.1-.1h.2l.3.3-.1.2-.2.1-.1.7H36l-.1.2-.1.1-.3.1-.2.5-.4.2v.7l-.3.1-.5.2v.3l-.1.1-.6-.3h-.5l-.3.1-.3-.1-.4-.3-.2.2-.1.4h-.8l-.4.1-.4.2-.5-.2-.2.2-.4.4-1 .1-.2.4-.8.7h-.5l-.7.1-.2.5-.2.3-.2.2h-.5l-.3-.1-.6.5h-.5l-.3-.2-.3.6-.2-.4-.4-.2-.4-.1-.3.3-.2.4v.7l-.6.2-.2.5-.2.5-.6.6H19l-.6-.1H18l-.6-.2-.4-.7h-.5l-.2-.1-.1-.3V34l.1-.1v-.3l-.3-.2v-.6l-.3-.1h-.4l-.5-.2-.5-.2-.5-.4V31.3l-.4-.6 3.5-6.1z"
		fill-rule="evenodd" clip-rule="evenodd" stroke="#00" stroke-linejoin="round" stroke-miterlimit="10" />
</svg>