<svg xmlns="http://www.w3.org/2000/svg" version="1.0" viewBox="0 0 57 100">
    <path
        d="M38.2 4.5C36.5 5.9 34.4 7 33.4 7c-2.9.1-6.1 3.1-7.8 7.4-.9 2.2-2.5 4.5-3.5 5.3C20 21.1 6.5 43.3 4.9 48c-.6 1.6-.9 3.5-.7 4.2.3.7-.1 3.4-.8 6-1 3.8-.9 5.1.2 7.4.8 1.5 2.2 5.2 3 8.2.9 3.1 2.6 6.4 3.8 7.3 1.1 1 3.4 2.9 5 4.2 2.3 1.9 3 3.3 3.2 6.8.2 2.4.3 4.7.3 5 .2 1.8 3.3 1.6 5-.2 1.4-1.5 1.8-3 1.4-5.4-.7-4.1 1.2-10 4.6-14.5 4.3-5.8 7.1-10 7.1-10.9 0-.5.6-1.4 1.4-2.1.8-.6 1.2-1.8 1-2.5-.3-.7 0-2.3.6-3.5 1.2-2.2 1.4-3 2.5-10.5.8-5.4 1.2-6.7 5.2-16.2 2.9-6.7 3.3-8.7 2.6-11-1.3-3.6.2-7.9 2.8-8.6 1.9-.5 2-.6.2-2.6C52.4 7.9 51 7 50.2 7c-.7 0-2.4-1.1-3.8-2.5S43.3 2 42.5 2c-.7 0-2.7 1.1-4.3 2.5z" />
</svg>